STARTFONT 2.1
COMMENT
COMMENT Converted from OpenType font "Q:\font stuff\winfont\CCPhasesOnStun.ttf" by "otf2bdf 3.0".
COMMENT
FONT -FreeType-CCPhasesOnStun-Medium-R-Normal--52-520-72-72-P-215-ISO10646-1
SIZE 52 72 72
FONTBOUNDINGBOX 77 48 -1 -4
STARTPROPERTIES 19
FOUNDRY "FreeType"
FAMILY_NAME "CCPhasesOnStun"
WEIGHT_NAME "Medium"
SLANT "R"
SETWIDTH_NAME "Normal"
ADD_STYLE_NAME ""
PIXEL_SIZE 52
POINT_SIZE 520
RESOLUTION_X 72
RESOLUTION_Y 72
SPACING "P"
AVERAGE_WIDTH 215
CHARSET_REGISTRY "ISO10646"
CHARSET_ENCODING "1"
FONT_ASCENT 0
FONT_DESCENT 0
COPYRIGHT "\2511995 Comicraft. All Rights Reserved. Unauthorized duplication and/or use is a violation of applicable laws."
_OTF_FONTFILE "Q:\font stuff\winfont\CCPhasesOnStun.ttf"
_OTF_PSNAME "CCPhasesOnStun"
ENDPROPERTIES
CHARS 105
STARTCHAR 0020
ENCODING 32
SWIDTH 211 0
DWIDTH 11 0
BBX 0 0 0 0
BITMAP
ENDCHAR
STARTCHAR 0021
ENCODING 33
SWIDTH 211 0
DWIDTH 11 0
BBX 12 42 0 0
BITMAP
FFF0
FFF0
C030
C030
C030
C030
C030
C030
C030
C030
C030
C030
C030
C030
C030
C030
C030
C030
C030
C030
C030
C030
C030
C030
C030
C030
C030
C030
C030
C030
C030
C030
C030
FFF0
FFF0
FFF0
C030
C030
C030
C030
FFF0
FFF0
ENDCHAR
STARTCHAR 0022
ENCODING 34
SWIDTH 346 0
DWIDTH 18 0
BBX 18 16 0 26
BITMAP
FFFFC0
FFFFC0
C0E0C0
C0E0C0
C0E0C0
C0E0C0
C0E0C0
C0E0C0
C0E0C0
C0E0C0
C0E0C0
C0E0C0
C0E0C0
C0E0C0
FFFFC0
FFFFC0
ENDCHAR
STARTCHAR 0023
ENCODING 35
SWIDTH 442 0
DWIDTH 23 0
BBX 23 29 0 10
BITMAP
1FFFF0
1FFFF0
183830
183830
183830
F8383E
F8383E
C00006
C00006
C00006
C00006
C00006
F8383E
F8383E
183830
F83830
F8383E
C00006
C00006
C00006
C00006
C00006
F8383E
F8383E
183830
183830
183830
1FFFF0
1FFFF0
ENDCHAR
STARTCHAR 0024
ENCODING 36
SWIDTH 423 0
DWIDTH 22 0
BBX 22 42 0 0
BITMAP
01FE00
01FE00
018600
018600
018600
1F87E0
7F87F8
600018
C0000C
C0000C
C0000C
C0780C
C0780C
C0780C
C0780C
C0780C
C0780C
C0780C
C0780C
C07FFC
C07FFC
C07FF8
C0001C
C0000C
C0000C
70000C
7FF80C
FFF80C
FFF80C
C0780C
C0780C
C0780C
C0000C
C0000C
C0000C
600018
7F87F8
1F87E0
018600
018600
01FE00
01FE00
ENDCHAR
STARTCHAR 0025
ENCODING 37
SWIDTH 423 0
DWIDTH 22 0
BBX 24 42 -1 0
BITMAP
1FFDFF
3FFDFE
600D86
600F06
630F0C
630F0C
630E1C
630E18
630E18
630C30
630C30
600830
600860
7FF860
7FF0E0
0030C0
0070C0
006180
006180
00E180
00C300
00C300
018300
018600
038600
030C00
030C00
070FFE
061FFE
061006
0C1006
0C3186
0C3186
187186
187186
387186
30F186
30F186
60F006
61B006
7FBFFC
FFBFF8
ENDCHAR
STARTCHAR 0026
ENCODING 38
SWIDTH 461 0
DWIDTH 24 0
BBX 24 42 0 0
BITMAP
1FFFE0
7FFFF8
60001C
C0000C
C0000C
C0000C
C07C0C
C07C0C
C07C0C
C07C0C
C07C0C
C07FFC
C07FFC
C07F83
C0031F
60067F
F00FF3
C01F83
C07E03
C07803
C06007
C0600F
C0600C
C0600C
C06C0C
C07C0C
C07C0C
C07C0C
C07C0C
C07C0C
C07C0C
C07C0C
C07C0C
C07C0C
C07C0C
C0000C
C0000C
C0000C
C0000C
600018
7FFFF8
1FFFE0
ENDCHAR
STARTCHAR 0027
ENCODING 39
SWIDTH 192 0
DWIDTH 10 0
BBX 11 16 0 26
BITMAP
FFE0
FFE0
C060
C060
C060
C060
C060
C060
C060
C060
C060
C060
C060
C060
FFE0
FFE0
ENDCHAR
STARTCHAR 0028
ENCODING 40
SWIDTH 288 0
DWIDTH 15 0
BBX 15 42 0 0
BITMAP
1FFE
7FFE
6006
C006
C006
C006
C07E
C07E
C060
C060
C060
C060
C060
C060
C060
C060
C060
C060
C060
C060
C060
C060
C060
C060
C060
C060
C060
C060
C060
C060
C060
C060
C060
C060
C07E
C07E
C006
C006
C006
6006
7FFE
1FFE
ENDCHAR
STARTCHAR 0029
ENCODING 41
SWIDTH 288 0
DWIDTH 15 0
BBX 15 42 0 0
BITMAP
FFF0
FFFC
C00C
C006
C006
C006
FC06
FC06
0C06
0C06
0C06
0C06
0C06
0C06
0C06
0C06
0C06
0C06
0C06
0C06
0C06
0C06
0C06
0C06
0C06
0C06
0C06
0C06
0C06
0C06
0C06
0C06
0C06
0C06
FC06
FC06
C006
C006
C006
C00C
FFFC
FFF0
ENDCHAR
STARTCHAR 002A
ENCODING 42
SWIDTH 365 0
DWIDTH 19 0
BBX 20 21 0 20
BITMAP
03FC00
03FC00
0B0D00
1F0F80
1F0F80
330CC0
300840
600060
600020
F00070
7C01E0
7800E0
E00070
600020
600060
310840
370EC0
1F0F80
1F0F80
03FC00
03FC00
ENDCHAR
STARTCHAR 002B
ENCODING 43
SWIDTH 288 0
DWIDTH 15 0
BBX 15 21 0 8
BITMAP
1FF0
1FF0
1830
1830
1830
1830
F83E
F83E
C006
C006
C006
C006
C006
F83E
F83E
1830
1830
1830
1830
1FF0
1FF0
ENDCHAR
STARTCHAR 002C
ENCODING 44
SWIDTH 192 0
DWIDTH 10 0
BBX 8 14 0 -3
BITMAP
FF
FF
C3
C3
C3
C3
C3
C3
C3
C3
C3
C3
FF
FF
ENDCHAR
STARTCHAR 002D
ENCODING 45
SWIDTH 153 0
DWIDTH 8 0
BBX 9 14 0 12
BITMAP
FF80
FF80
C180
C180
C180
C180
C180
C180
C180
C180
C180
C180
FF80
FF80
ENDCHAR
STARTCHAR 002E
ENCODING 46
SWIDTH 250 0
DWIDTH 13 0
BBX 8 8 0 0
BITMAP
FF
FF
C3
C3
C3
C3
FF
FF
ENDCHAR
STARTCHAR 002F
ENCODING 47
SWIDTH 403 0
DWIDTH 21 0
BBX 24 42 -1 0
BITMAP
0007FF
000FFE
000C06
000C06
001C06
00180C
00180C
00180C
003018
003018
003018
006030
006030
006030
00E030
00C060
00C060
00C060
0180C0
0180C0
0180C0
030180
030180
030180
070180
060300
060300
060300
0C0600
0C0600
0C0600
180C00
180C00
180C00
380C00
301800
301800
301800
603000
603000
7FF000
FFF000
ENDCHAR
STARTCHAR 0030
ENCODING 48
SWIDTH 423 0
DWIDTH 22 0
BBX 22 42 0 0
BITMAP
1FFFE0
7FFFF8
600018
C0000C
C0000C
C0000C
C07C0C
C07C0C
C07C0C
C07C0C
C07C0C
C07C0C
C07C0C
C07C0C
C07C0C
C07C0C
C07C0C
C07C0C
C07C0C
C07C0C
C07C0C
C07C0C
C07C0C
C07C0C
C07C0C
C07C0C
C07C0C
C07C0C
C07C0C
C07C0C
C07C0C
C07C0C
C07C0C
C07C0C
C07C0C
C07C0C
C0000C
C0000C
C0000C
600018
7FFFF8
1FFFE0
ENDCHAR
STARTCHAR 0031
ENCODING 49
SWIDTH 269 0
DWIDTH 14 0
BBX 14 42 0 0
BITMAP
FFFC
FFFC
C00C
C00C
C00C
C00C
F80C
F80C
180C
180C
180C
180C
180C
180C
180C
180C
180C
180C
180C
180C
180C
180C
180C
180C
180C
180C
180C
180C
180C
180C
180C
180C
180C
180C
180C
180C
180C
180C
180C
180C
1FFC
1FFC
ENDCHAR
STARTCHAR 0032
ENCODING 50
SWIDTH 423 0
DWIDTH 22 0
BBX 22 41 0 0
BITMAP
1FFFE0
7FFFF8
60001C
C0000C
C0000C
C0000C
C07C0C
C07C0C
C07C0C
C07C0C
C07C0C
FFFC0C
FFFC0C
3FFC0C
70000C
C0000C
C0001C
C07FF8
C07FE0
C06000
C06000
C06000
C06000
C07FFC
C07FFC
C07C0C
C07C0C
C07C0C
C07C0C
C07C0C
C07C0C
C07C0C
C07C0C
C07C0C
C07C0C
C0000C
C0000C
C0000C
C0000C
FFFFFC
FFFFFC
ENDCHAR
STARTCHAR 0033
ENCODING 51
SWIDTH 423 0
DWIDTH 22 0
BBX 23 42 0 0
BITMAP
FFFFFE
FFFFFC
C00018
C00038
C00030
C00070
FF80E0
FF80E0
0301C0
0701C0
060380
0E0300
0C0700
1C0FE0
180FF8
38001C
70000C
70000C
FFF80C
FFF80C
00180C
00180C
00180C
00180C
FFF80C
FFF80C
C0F80C
C0F80C
C0F80C
C0F80C
C0F80C
C0F80C
C0F80C
C0F80C
C0F80C
C0F80C
C0000C
C0000C
C0000C
60001C
7FFFF8
1FFFE0
ENDCHAR
STARTCHAR 0034
ENCODING 52
SWIDTH 480 0
DWIDTH 25 0
BBX 25 42 0 0
BITMAP
FFFFFC00
FFFFFC00
C0F80C00
C0F80C00
C0F80C00
C0F80C00
C0F80C00
C0F80C00
C0F80C00
C0F80C00
C0F80C00
C0F80C00
C0F80F80
C0F80F80
C0000180
C0000180
C0000180
C0000180
FFF80F80
FFF80F80
00180C00
00180C00
00180C00
00180C00
00180C00
00180C00
00180C00
00180C00
00180C00
00180C00
00180C00
00180C00
00180C00
00180C00
00180C00
00180C00
00180C00
00180C00
00180C00
00180C00
001FFC00
001FFC00
ENDCHAR
STARTCHAR 0035
ENCODING 53
SWIDTH 423 0
DWIDTH 22 0
BBX 22 41 0 0
BITMAP
FFFFFC
FFFFFC
C0000C
C0000C
C0000C
C0000C
C07FFC
C07FFC
C06000
C06000
C06000
C07FE0
C07FF8
C0003C
C0000C
C0000C
C0000C
FFFC0C
FFFC0C
001C0C
001C0C
001C0C
001C0C
FFFC0C
FFFC0C
C07C0C
C07C0C
C07C0C
C07C0C
C07C0C
C07C0C
C07C0C
C07C0C
C07C0C
C07C0C
C0000C
C0000C
C0000C
E00018
7FFFF8
1FFFE0
ENDCHAR
STARTCHAR 0036
ENCODING 54
SWIDTH 423 0
DWIDTH 22 0
BBX 22 42 0 0
BITMAP
1FFFE0
7FFFF8
600018
C0000C
C0000C
C0000C
C07C0C
C07C0C
C07C0C
C07C0C
C07C0C
C07C0C
C07FFC
C07FFC
C00018
C0000C
C0000C
C0000C
C0000C
C0780C
C0780C
C0780C
C0780C
C0780C
C0780C
C0780C
C0780C
C0780C
C0780C
C0780C
C0780C
C0780C
C0780C
C0780C
C0780C
C0780C
C0000C
C0000C
C0000C
600018
7FFFF8
1FFFE0
ENDCHAR
STARTCHAR 0037
ENCODING 55
SWIDTH 423 0
DWIDTH 22 0
BBX 22 42 0 0
BITMAP
FFFFFC
FFFFFC
C0000C
C0000C
C0000C
C0000C
FFF80C
FFE00C
03C01C
070038
1E00F0
3C01C0
700780
E00F00
C01C00
C07800
C06000
C06000
C06000
C06000
C06000
C06000
C06000
C06000
C06000
C06000
C06000
C06000
C06000
C06000
C06000
C06000
C06000
C06000
C06000
C06000
C06000
C06000
C06000
C06000
FFE000
FFE000
ENDCHAR
STARTCHAR 0038
ENCODING 56
SWIDTH 423 0
DWIDTH 22 0
BBX 22 42 0 0
BITMAP
1FFFE0
7FFFF8
600018
C0000C
C0000C
C0000C
C07C0C
C07C0C
C07C0C
C07C0C
C07C0C
C07C0C
C07C0C
C0700C
C04018
700070
380038
70000C
E00C0C
C03C0C
C07C0C
C07C0C
C07C0C
C07C0C
C07C0C
C07C0C
C07C0C
C07C0C
C07C0C
C07C0C
C07C0C
C07C0C
C07C0C
C07C0C
C07C0C
C07C0C
C0000C
C0000C
C0000C
600018
7FFFF8
1FFFE0
ENDCHAR
STARTCHAR 0039
ENCODING 57
SWIDTH 423 0
DWIDTH 22 0
BBX 22 41 0 0
BITMAP
1FFFE0
7FFFF8
E0001C
C0000C
C0000C
C0780C
C0780C
C0780C
C0780C
C0780C
C0780C
C0780C
C0780C
C0000C
C0000C
C0000C
C0000C
7FF80C
3FF80C
00180C
00180C
00180C
00180C
FFF80C
FFF80C
C0780C
C0780C
C0780C
C0780C
C0780C
C0780C
C0780C
C0780C
C0780C
C0780C
C0000C
C0000C
C0000C
E0001C
7FFFF8
1FFFE0
ENDCHAR
STARTCHAR 003A
ENCODING 58
SWIDTH 211 0
DWIDTH 11 0
BBX 8 20 0 10
BITMAP
FF
FF
C3
C3
C3
C3
FF
FF
00
00
00
00
FF
FF
C3
C3
C3
C3
FF
FF
ENDCHAR
STARTCHAR 003B
ENCODING 59
SWIDTH 211 0
DWIDTH 11 0
BBX 8 33 0 -3
BITMAP
FF
FF
C3
C3
C3
C3
FF
FF
00
00
00
00
00
00
00
00
00
00
00
FF
FF
C3
C3
C3
C3
C3
C3
C3
C3
C3
C3
FF
FF
ENDCHAR
STARTCHAR 003C
ENCODING 60
SWIDTH 346 0
DWIDTH 18 0
BBX 19 46 0 -2
BITMAP
001800
003C00
007E00
00E700
01C380
038180
0701C0
0E00E0
1C01C0
380380
700700
E00E00
C01C00
C03800
C07000
C06000
C06000
C06000
C06000
C06000
C06000
C06000
C06000
C06000
C06000
C06000
C06000
C06000
C06000
C07000
C03800
C01800
E00C00
700E00
380700
180300
1C0180
0E01C0
0700C0
0301C0
018380
01C600
00FC00
007800
003000
002000
ENDCHAR
STARTCHAR 003D
ENCODING 61
SWIDTH 269 0
DWIDTH 14 0
BBX 15 15 0 11
BITMAP
FFFE
FFFE
C006
C006
C006
C006
FFFE
FFFE
FFFE
C006
C006
C006
C006
FFFE
FFFE
ENDCHAR
STARTCHAR 003E
ENCODING 62
SWIDTH 346 0
DWIDTH 18 0
BBX 19 46 -1 -2
BITMAP
030000
078000
0FC000
1CE000
187000
303800
601C00
E00E00
700700
380380
1C01C0
0E00E0
070060
038060
01C060
00C060
00C060
00C060
00C060
00C060
00C060
00C060
00C060
00C060
00C060
00C060
00C060
00C060
00C060
01C060
038060
030060
0600C0
0E01C0
1C0180
180300
300600
700E00
E00C00
701800
3C3000
0E7000
07E000
03C000
018000
008000
ENDCHAR
STARTCHAR 003F
ENCODING 63
SWIDTH 423 0
DWIDTH 22 0
BBX 22 42 0 0
BITMAP
1FFFE0
7FFFF8
600018
C0000C
C0000C
C07C0C
C07C0C
C07C0C
C07C0C
C07C0C
C07C0C
C07C0C
C07C0C
C07C0C
C07C0C
C07C0C
C07C0C
C07C0C
C07C0C
C07C0C
FFFC0C
FFFC0C
7FFC0C
E0000C
C0000C
C00038
C07FF0
C07FE0
C06000
C06000
C06000
C06000
C06000
C06000
FFE000
FFE000
C06000
C06000
C06000
C06000
FFE000
FFE000
ENDCHAR
STARTCHAR 0040
ENCODING 64
SWIDTH 596 0
DWIDTH 31 0
BBX 31 34 0 4
BITMAP
1FFFFFF0
7FFFFFFC
6000000C
C0000006
C0000006
C0000006
C0000006
C07FFC06
C07FFC06
C0780006
C0700006
C0700006
C0700006
C0703C06
C0703C06
C0703C06
C0703C06
C0703C06
C0703C06
C0703C06
C0703C06
C0700006
C0700006
C0700006
C0780006
C07FFFFE
C07FFFFE
C0000006
C0000006
C0000006
C0000006
E0000006
7FFFFFFE
1FFFFFFE
ENDCHAR
STARTCHAR 0041
ENCODING 65
SWIDTH 423 0
DWIDTH 22 0
BBX 22 42 0 0
BITMAP
1FFFFC
7FFFFC
60000C
C0000C
C0000C
C0000C
C0780C
C0780C
C0780C
C0780C
C0780C
C0780C
C0780C
C0780C
C0000C
C0000C
C0000C
C0000C
C0000C
C0780C
C0780C
C0780C
C0780C
C0780C
C0780C
C0780C
C0780C
C0780C
C0780C
C0780C
C0780C
C0780C
C0780C
C0780C
C0780C
C0780C
C0780C
C0780C
C0780C
C0780C
FFFFFC
FFFFFC
ENDCHAR
STARTCHAR 0042
ENCODING 66
SWIDTH 423 0
DWIDTH 22 0
BBX 22 42 0 0
BITMAP
FFFFFC
FFFFFC
C0000C
C0000C
C0000C
C0000C
C07C0C
C07C0C
C07C0C
C07C0C
C07C0C
C07C0C
C07C0C
C0700C
C04018
C00070
C00038
C0040C
C01C0C
C07C0C
C07C0C
C07C0C
C07C0C
C07C0C
C07C0C
C07C0C
C07C0C
C07C0C
C07C0C
C07C0C
C07C0C
C07C0C
C07C0C
C07C0C
C07C0C
C07C0C
C0000C
C0000C
C00018
C000F0
FFFFE0
FFFF80
ENDCHAR
STARTCHAR 0043
ENCODING 67
SWIDTH 365 0
DWIDTH 19 0
BBX 19 42 0 0
BITMAP
1FFFE0
7FFFE0
600060
C00060
C00060
C00060
C07FE0
C07FE0
C06000
C06000
C06000
C06000
C06000
C06000
C06000
C06000
C06000
C06000
C06000
C06000
C06000
C06000
C06000
C06000
C06000
C06000
C06000
C06000
C06000
C06000
C06000
C06000
C06000
C06000
C07FE0
C07FE0
C00060
C00060
C00060
C00060
FFFFE0
FFFFE0
ENDCHAR
STARTCHAR 0044
ENCODING 68
SWIDTH 423 0
DWIDTH 22 0
BBX 22 42 0 0
BITMAP
FFFFFC
FFFFFC
C0000C
C0000C
C0000C
C0000C
C0F80C
C0F80C
C0F80C
C0F80C
C0F80C
C0F80C
C0F80C
C0F80C
C0F80C
C0F80C
C0F80C
C0F80C
C0F80C
C0F80C
C0F80C
C0F80C
C0F80C
C0F80C
C0F80C
C0F80C
C0F80C
C0F80C
C0F80C
C0F80C
C0F80C
C0F80C
C0F80C
C0F80C
C0F80C
C0F80C
C0000C
C0000C
C00018
C000F8
FFFFE0
FFFF80
ENDCHAR
STARTCHAR 0045
ENCODING 69
SWIDTH 288 0
DWIDTH 15 0
BBX 16 42 0 0
BITMAP
FFFE
FFFE
C006
C006
C006
C006
C07E
C07E
C060
C060
C060
C060
C07E
C07E
C006
C006
C006
C006
C07E
C07E
C060
C060
C060
C060
C060
C060
C060
C060
C060
C060
C060
C060
C060
C060
C07F
C07F
C003
C003
C003
C003
FFFF
FFFF
ENDCHAR
STARTCHAR 0046
ENCODING 70
SWIDTH 288 0
DWIDTH 15 0
BBX 15 42 0 0
BITMAP
FFFE
FFFE
C006
C006
C006
C006
C07E
C07E
C060
C060
C060
C060
C07E
C07E
C006
C006
C006
C006
C07E
C07E
C060
C060
C060
C060
C060
C060
C060
C060
C060
C060
C060
C060
C060
C060
C060
C060
C060
C060
C060
C060
FFE0
FFE0
ENDCHAR
STARTCHAR 0047
ENCODING 71
SWIDTH 423 0
DWIDTH 22 0
BBX 22 42 0 0
BITMAP
1FFFFC
7FFFFC
60000C
C0000C
C0000C
C0000C
C07FFC
C07FFC
C06000
C06000
C06000
C06000
C07FFC
C07FFC
C0600C
C0600C
C0600C
C0600C
C0600C
C0780C
C0780C
C0780C
C0780C
C0780C
C0780C
C0780C
C0780C
C0780C
C0780C
C0780C
C0780C
C0780C
C0780C
C0780C
C0780C
C0780C
C0000C
C0000C
C0000C
C00018
FFFFF8
FFFFE0
ENDCHAR
STARTCHAR 0048
ENCODING 72
SWIDTH 423 0
DWIDTH 22 0
BBX 22 42 0 0
BITMAP
FFFFFC
FFFFFC
C0F80C
C0F80C
C0F80C
C0F80C
C0F80C
C0F80C
C0F80C
C0F80C
C0F80C
C0F80C
C0F80C
C0F80C
C0000C
C0000C
C0000C
C0000C
C0000C
C0F80C
C0F80C
C0F80C
C0F80C
C0F80C
C0F80C
C0F80C
C0F80C
C0F80C
C0F80C
C0F80C
C0F80C
C0F80C
C0F80C
C0F80C
C0F80C
C0F80C
C0F80C
C0F80C
C0F80C
C0F80C
FFFFFC
FFFFFC
ENDCHAR
STARTCHAR 0049
ENCODING 73
SWIDTH 365 0
DWIDTH 19 0
BBX 19 42 0 0
BITMAP
FFFFE0
FFFFE0
C00060
C00060
C00060
C00060
FC07E0
FC07E0
0C0600
0C0600
0C0600
0C0600
0C0600
0C0600
0C0600
0C0600
0C0600
0C0600
0C0600
0C0600
0C0600
0C0600
0C0600
0C0600
0C0600
0C0600
0C0600
0C0600
0C0600
0C0600
0C0600
0C0600
0C0600
0C0600
FC07E0
FC07E0
C00060
C00060
C00060
C00060
FFFFE0
FFFFE0
ENDCHAR
STARTCHAR 004A
ENCODING 74
SWIDTH 423 0
DWIDTH 22 0
BBX 22 42 0 0
BITMAP
001FFC
001FFC
00180C
00180C
00180C
00180C
00180C
00180C
00180C
00180C
00180C
00180C
00180C
00180C
00180C
00180C
FFF80C
FFF80C
C0F80C
C0F80C
C0F80C
C0F80C
C0F80C
C0F80C
C0F80C
C0F80C
C0F80C
C0F80C
C0F80C
C0F80C
C0F80C
C0F80C
C0F80C
C0F80C
C0F80C
C0000C
C0000C
C0000C
C0000C
C00018
FFFFF8
FFFFE0
ENDCHAR
STARTCHAR 004B
ENCODING 75
SWIDTH 423 0
DWIDTH 22 0
BBX 22 42 0 0
BITMAP
FFFFFC
FFFFFC
C0700C
C07018
C07018
C06018
C06030
C06030
C04060
C04060
C04060
C040C0
C080C0
C001F0
C00078
C00018
C0000C
C0000C
C0780C
C0780C
C0780C
C0780C
C0780C
C0780C
C0780C
C0780C
C0780C
C0780C
C0780C
C0780C
C0780C
C0780C
C0780C
C0780C
C0780C
C0780C
C0780C
C0780C
C0780C
C0780C
FFFFFC
FFFFFC
ENDCHAR
STARTCHAR 004C
ENCODING 76
SWIDTH 288 0
DWIDTH 15 0
BBX 15 42 0 0
BITMAP
FFE0
FFE0
C060
C060
C060
C060
C060
C060
C060
C060
C060
C060
C060
C060
C060
C060
C060
C060
C060
C060
C060
C060
C060
C060
C060
C060
C060
C060
C060
C060
C060
C060
C060
C060
C07E
C07E
C006
C006
C006
C006
FFFE
FFFE
ENDCHAR
STARTCHAR 004D
ENCODING 77
SWIDTH 557 0
DWIDTH 29 0
BBX 30 42 0 0
BITMAP
FFC00FFC
FFC00FFC
C060180C
C070380C
C038700C
C018600C
C00CE00C
C00FC00C
C007800C
C003000C
C001000C
C000000C
C000000C
C040100C
C040100C
C060300C
C070700C
C078700C
C07CF00C
C06DB00C
C06FB00C
C067300C
C063300C
C060300C
C060300C
C060300C
C060300C
C060300C
C060300C
C060300C
C060300C
C060300C
C060300C
C060300C
C060300C
C060300C
C060300C
C060300C
C060300C
C060300C
FFE03FFC
FFE03FFC
ENDCHAR
STARTCHAR 004E
ENCODING 78
SWIDTH 423 0
DWIDTH 22 0
BBX 22 42 0 0
BITMAP
FFDFFC
FFFFFC
C0780C
C0780C
C0780C
C0380C
C0380C
C0180C
C0180C
C0180C
C0080C
C0080C
C0080C
C0000C
C0000C
C0000C
C0000C
C0800C
C0400C
C0400C
C0600C
C0600C
C0600C
C0700C
C0700C
C0700C
C0780C
C0780C
C0780C
C0780C
C0780C
C0780C
C0780C
C0780C
C0780C
C0780C
C0780C
C0780C
C0780C
C0780C
FFFFFC
FFFFFC
ENDCHAR
STARTCHAR 004F
ENCODING 79
SWIDTH 423 0
DWIDTH 22 0
BBX 22 42 0 0
BITMAP
1FFFFC
7FFFFC
60000C
C0000C
C0000C
C0000C
C07C0C
C07C0C
C07C0C
C07C0C
C07C0C
C07C0C
C07C0C
C07C0C
C07C0C
C07C0C
C07C0C
C07C0C
C07C0C
C07C0C
C07C0C
C07C0C
C07C0C
C07C0C
C07C0C
C07C0C
C07C0C
C07C0C
C07C0C
C07C0C
C07C0C
C07C0C
C07C0C
C07C0C
C07C0C
C07C0C
C0000C
C0000C
C0000C
C00018
FFFFF8
FFFFE0
ENDCHAR
STARTCHAR 0050
ENCODING 80
SWIDTH 423 0
DWIDTH 22 0
BBX 22 42 0 0
BITMAP
FFFFFC
FFFFFC
C0000C
C0000C
C0000C
C0000C
C07C0C
C07C0C
C07C0C
C07C0C
C07C0C
C07C0C
C07C0C
C0700C
C04018
C00070
C000E0
C003C0
C00F00
C03C00
C07800
C06000
C06000
C06000
C06000
C06000
C06000
C06000
C06000
C06000
C06000
C06000
C06000
C06000
C06000
C06000
C06000
C06000
C06000
C06000
FFE000
FFE000
ENDCHAR
STARTCHAR 0051
ENCODING 81
SWIDTH 423 0
DWIDTH 22 0
BBX 22 45 0 -4
BITMAP
1FFFFC
7FFFFC
E0000C
C0000C
C0000C
C0000C
C07C0C
C07C0C
C07C0C
C07C0C
C07C0C
C07C0C
C07C0C
C07C0C
C07C0C
C07C0C
C07C0C
C07C0C
C07C0C
C07C0C
C07C0C
C07C0C
C07C0C
C07C0C
C07C0C
C07C0C
C07C0C
C07C0C
C07C0C
C07C0C
C07C0C
C07C0C
C07C0C
C07C0C
C07C0C
C07C0C
C0000C
C0000C
C0000C
C00018
FF03F8
FFF3E0
01FE00
003E00
000600
ENDCHAR
STARTCHAR 0052
ENCODING 82
SWIDTH 423 0
DWIDTH 22 0
BBX 22 42 0 0
BITMAP
FFFFE0
FFFFF8
C00018
C0000C
C0000C
C0000C
C07C0C
C07C0C
C07C0C
C07C0C
C07C0C
C07C0C
C07C0C
C0700C
C04018
C00070
C00038
C0041C
C01C0C
C07C0C
C07C0C
C07C0C
C07C0C
C07C0C
C07C0C
C07C0C
C07C0C
C07C0C
C07C0C
C07C0C
C07C0C
C07C0C
C07C0C
C07C0C
C07C0C
C07C0C
C07C0C
C07C0C
C07C0C
C07C0C
FFFFFC
FFFFFC
ENDCHAR
STARTCHAR 0053
ENCODING 83
SWIDTH 423 0
DWIDTH 22 0
BBX 22 42 0 0
BITMAP
1FFFFC
7FFFFC
60000C
C0000C
C0000C
C0000C
C0000C
C07C0C
C07C0C
C07C0C
C07C0C
C07C0C
C07FFC
C07FFC
C07FF8
C0001C
C0000C
70000C
3FFC0C
FFFC0C
FFFC0C
C07C0C
C07C0C
C07C0C
C07C0C
C07C0C
C07C0C
C07C0C
C07C0C
C07C0C
C07C0C
C07C0C
C07C0C
C07C0C
C07C0C
C07C0C
C0000C
C0000C
C0000C
60001C
7FFFF8
1FFFE0
ENDCHAR
STARTCHAR 0054
ENCODING 84
SWIDTH 346 0
DWIDTH 18 0
BBX 19 42 -1 0
BITMAP
FFFFE0
FFFFE0
C00060
C00060
C00060
C00060
FC07E0
FC07E0
0C0600
0C0600
0C0600
0C0600
0C0600
0C0600
0C0600
0C0600
0C0600
0C0600
0C0600
0C0600
0C0600
0C0600
0C0600
0C0600
0C0600
0C0600
0C0600
0C0600
0C0600
0C0600
0C0600
0C0600
0C0600
0C0600
0C0600
0C0600
0C0600
0C0600
0C0600
0C0600
0FFE00
0FFE00
ENDCHAR
STARTCHAR 0055
ENCODING 85
SWIDTH 423 0
DWIDTH 22 0
BBX 22 42 0 0
BITMAP
FFFFFC
FFFFFC
C07C0C
C07C0C
C07C0C
C07C0C
C07C0C
C07C0C
C07C0C
C07C0C
C07C0C
C07C0C
C07C0C
C07C0C
C07C0C
C07C0C
C07C0C
C07C0C
C07C0C
C07C0C
C07C0C
C07C0C
C07C0C
C07C0C
C07C0C
C07C0C
C07C0C
C07C0C
C07C0C
C07C0C
C07C0C
C07C0C
C07C0C
C07C0C
C07C0C
C0000C
C0000C
C0000C
600018
780078
1FFFE0
07FF80
ENDCHAR
STARTCHAR 0056
ENCODING 86
SWIDTH 423 0
DWIDTH 22 0
BBX 24 42 -1 0
BITMAP
FFFFFF
7FFFFF
603C03
603C03
603C06
603C06
603C06
603C06
603C06
603C06
603C06
301806
301806
301804
30180C
30180C
30180C
30180C
30180C
30180C
38180C
18180C
18180C
181818
180818
181018
181018
181018
180018
180018
0C0018
0C0018
0C0010
0C0030
0C0030
0C0030
0C0030
0C0030
0C0030
0C0030
07FFF0
07FFF0
ENDCHAR
STARTCHAR 0057
ENCODING 87
SWIDTH 634 0
DWIDTH 33 0
BBX 33 42 0 0
BITMAP
FFFFFFFF80
FFFFFFFF80
C0F80F0180
C0F80F0180
C0F80F0180
C0F80F0180
C0F80F0180
C0F80F0180
C0F80F0180
C0F80F0180
C0F80F0180
C0F80F0180
C0F80F0180
C0F80F0180
C0F80F0180
C0F80F0180
C0F80F0180
C0F80F0180
C0F80F0180
C0F80F0180
C0F80F0180
C0F80F0180
C0F80F0180
C0F80F0180
C0F80F0180
C0F80F0180
C0F80F0180
C0F80F0180
C0F80F0180
C0F80F0180
C0F80F0180
C0F80F0180
C0F80F0180
C0F80F0180
C0F80F0180
C000000180
C000000180
C000000180
6000000180
3800000180
1FFFFFFF80
07FFFFFF80
ENDCHAR
STARTCHAR 0058
ENCODING 88
SWIDTH 423 0
DWIDTH 22 0
BBX 22 42 0 0
BITMAP
FFFFFC
FFFFFC
C0F80C
C0F80C
C0F80C
C0F80C
C0F80C
C0F80C
C0F80C
C0F80C
C0F80C
C0F80C
C0F00C
C0C00C
C00018
700070
380038
70001C
E0180C
C0780C
C0F80C
C0F80C
C0F80C
C0F80C
C0F80C
C0F80C
C0F80C
C0F80C
C0F80C
C0F80C
C0F80C
C0F80C
C0F80C
C0F80C
C0F80C
C0F80C
C0F80C
C0F80C
C0F80C
C0F80C
FFFFFC
FFFFFC
ENDCHAR
STARTCHAR 0059
ENCODING 89
SWIDTH 423 0
DWIDTH 22 0
BBX 22 42 0 0
BITMAP
FFFFFC
FFFFFC
C07C0C
C07C0C
C07C0C
C07C0C
C07C0C
C07C0C
C07C0C
C07C0C
C07C0C
C07C0C
C07C0C
C07C0C
C0000C
C0000C
C0000C
E0000C
7FFC0C
FFFC0C
FFFC0C
C07C0C
C07C0C
C07C0C
C07C0C
C07C0C
C07C0C
C07C0C
C07C0C
C07C0C
C07C0C
C07C0C
C07C0C
C07C0C
C07C0C
C07C0C
C0000C
C0000C
C0000C
60000C
7FFFFC
1FFFFC
ENDCHAR
STARTCHAR 005A
ENCODING 90
SWIDTH 423 0
DWIDTH 22 0
BBX 22 42 0 0
BITMAP
FFFFFC
FFFFFC
C0000C
C0000C
C0000C
C0000C
FFF80C
FFE00C
03C01C
070038
0E00F0
3C01C0
700380
E00F00
C01C00
C07800
C07000
C06000
C06000
C06000
C06000
C06000
C06000
C06000
C06000
C06000
C06000
C06000
C06000
C06000
C06000
C06000
C06000
C06000
C07FFC
C07FFC
C0000C
C0000C
C0000C
C0000C
FFFFFC
FFFFFC
ENDCHAR
STARTCHAR 005B
ENCODING 91
SWIDTH 288 0
DWIDTH 15 0
BBX 15 42 0 0
BITMAP
FFFE
FFFE
C006
C006
C006
C006
C07E
C07E
C060
C060
C060
C060
C060
C060
C060
C060
C060
C060
C060
C060
C060
C060
C060
C060
C060
C060
C060
C060
C060
C060
C060
C060
C060
C060
C07E
C07E
C006
C006
C006
C006
FFFE
FFFE
ENDCHAR
STARTCHAR 005C
ENCODING 92
SWIDTH 403 0
DWIDTH 21 0
BBX 24 42 -1 0
BITMAP
FFE000
7FF000
603000
603000
701800
301800
301800
301C00
180C00
180C00
180C00
0C0600
0C0600
0C0600
0E0300
060300
060300
060380
030180
030180
030180
0180C0
0180C0
0180C0
00C060
00C060
00C060
00E070
006030
006030
006030
003018
003018
003018
00180C
00180C
00180C
001C06
000C06
000C06
000FFE
0007FF
ENDCHAR
STARTCHAR 005D
ENCODING 93
SWIDTH 288 0
DWIDTH 15 0
BBX 15 42 0 0
BITMAP
FFFE
FFFE
C006
C006
C006
C006
C006
FC06
FC06
0C06
0C06
0C06
0C06
0C06
0C06
0C06
0C06
0C06
0C06
0C06
0C06
0C06
0C06
0C06
0C06
0C06
0C06
0C06
0C06
0C06
0C06
0C06
0C06
0C06
FC06
FC06
C006
C006
C006
C006
FFFE
FFFE
ENDCHAR
STARTCHAR 005F
ENCODING 95
SWIDTH 403 0
DWIDTH 21 0
BBX 22 3 0 -3
BITMAP
FFFFFC
FFFFFC
FFFFFC
ENDCHAR
STARTCHAR 0061
ENCODING 97
SWIDTH 423 0
DWIDTH 22 0
BBX 22 42 0 0
BITMAP
1FFFE0
7FFFF8
600018
C0000C
C0000C
C0000C
C0780C
C0780C
C0780C
C0780C
C0780C
C0780C
C0780C
C0780C
C0780C
C0780C
C0780C
C0780C
C0780C
C0780C
C0780C
C0780C
C0780C
C0780C
C0780C
C0780C
C0000C
C0000C
C0000C
C0000C
C0780C
C0780C
C0780C
C0780C
C0780C
C0780C
C0780C
C0780C
C0780C
C0780C
FFFFFC
FFFFFC
ENDCHAR
STARTCHAR 0062
ENCODING 98
SWIDTH 403 0
DWIDTH 21 0
BBX 22 42 0 0
BITMAP
FFFF80
FFFFE0
C00070
C00038
C0001C
C0000C
C07C0C
C07C0C
C07C0C
C07C0C
C07C0C
C07C0C
C07C0C
C07C0C
C07C0C
C07C0C
C07C0C
C07C0C
C07C0C
C07C0C
C07C0C
C07C0C
C07C0C
C07C0C
C0780C
C0601C
C00038
C00070
C00038
C0040C
C01C0C
C07C0C
C07C0C
C07C0C
C07C0C
C0000C
C0000C
C0000C
C0000C
C0000C
FFFFFC
FFFFFC
ENDCHAR
STARTCHAR 0063
ENCODING 99
SWIDTH 423 0
DWIDTH 22 0
BBX 22 42 0 0
BITMAP
1FFFFC
7FFFFC
60000C
C0000C
C0000C
C0000C
C07C0C
C07C0C
C07C0C
C07C0C
C07C0C
C07C0C
C07C0C
C07C0C
C07C0C
C07C0C
C07C0C
C07C0C
C07C0C
C07C0C
C07C0C
C07FFC
C07FFC
C06000
C06000
C06000
C06000
C06000
C06000
C06000
C06000
C06000
C06000
C06000
C07FFC
C07FFC
C0000C
C0000C
C0000C
C0000C
FFFFFC
FFFFFC
ENDCHAR
STARTCHAR 0064
ENCODING 100
SWIDTH 423 0
DWIDTH 22 0
BBX 22 42 0 0
BITMAP
FFFFE0
FFFFF8
C00018
C0000C
C0000C
C0000C
C0F80C
C0F80C
C0F80C
C0F80C
C0F80C
C0F80C
C0F80C
C0F80C
C0F80C
C0F80C
C0F80C
C0F80C
C0F80C
C0F80C
C0F80C
C0F80C
C0F80C
C0F80C
C0F80C
C0F80C
C0F80C
C0F80C
C0F80C
C0F80C
C0F80C
C0F80C
C0F80C
C0F80C
C0F80C
C0F80C
C0000C
C0000C
C0000C
C0000C
FFFFFC
FFFFFC
ENDCHAR
STARTCHAR 0065
ENCODING 101
SWIDTH 288 0
DWIDTH 15 0
BBX 15 42 0 0
BITMAP
FFFE
FFFE
C006
C006
C006
C006
C07E
C07E
C060
C060
C060
C060
C060
C060
C060
C060
C060
C060
C060
C060
C060
C060
C060
C060
C07E
C07E
C006
C006
C006
C006
C07E
C07E
C060
C060
C07E
C07E
C002
C002
C002
C002
FFFE
FFFE
ENDCHAR
STARTCHAR 0066
ENCODING 102
SWIDTH 288 0
DWIDTH 15 0
BBX 15 42 0 0
BITMAP
FFFE
FFFE
C006
C006
C006
C006
C07E
C07E
C060
C060
C060
C060
C060
C060
C060
C060
C060
C060
C060
C060
C060
C060
C060
C060
C07E
C07E
C006
C006
C006
C006
C07E
C07E
C060
C060
C060
C060
C060
C060
C060
C060
FFE0
FFE0
ENDCHAR
STARTCHAR 0067
ENCODING 103
SWIDTH 423 0
DWIDTH 22 0
BBX 22 42 0 0
BITMAP
1FFFFC
7FFFFC
60000C
C0000C
C0000C
C0000C
C07C0C
C07C0C
C07C0C
C07C0C
C07C0C
C07C0C
C07C0C
C07C0C
C07C0C
C07C0C
C07C0C
C07C0C
C07C0C
C07C0C
C07C0C
C07FFC
C07FFC
C06000
C07FFC
C07FFC
C0700C
C0700C
C0700C
C0700C
C07C0C
C07C0C
C07C0C
C07C0C
C07C0C
C0000C
C0000C
C0000C
C0000C
C0000C
FFFFFC
FFFFFC
ENDCHAR
STARTCHAR 0068
ENCODING 104
SWIDTH 423 0
DWIDTH 22 0
BBX 22 42 0 0
BITMAP
FFFFFC
FFFFFC
C0F80C
C0F80C
C0F80C
C0F80C
C0F80C
C0F80C
C0F80C
C0F80C
C0F80C
C0F80C
C0F80C
C0F80C
C0F80C
C0F80C
C0F80C
C0F80C
C0F80C
C0F80C
C0F80C
C0F80C
C0F80C
C0F80C
C0F80C
C0000C
C0000C
C0000C
C0000C
C0000C
C0F80C
C0F80C
C0F80C
C0F80C
C0F80C
C0F80C
C0F80C
C0F80C
C0F80C
C0F80C
FFFFFC
FFFFFC
ENDCHAR
STARTCHAR 0069
ENCODING 105
SWIDTH 192 0
DWIDTH 10 0
BBX 11 42 0 0
BITMAP
FFE0
FFE0
C060
C060
C060
C060
C060
C060
C060
C060
C060
C060
C060
C060
C060
C060
C060
C060
C060
C060
C060
C060
C060
C060
C060
C060
C060
C060
C060
C060
C060
C060
C060
C060
C060
C060
C060
C060
C060
C060
FFE0
FFE0
ENDCHAR
STARTCHAR 006A
ENCODING 106
SWIDTH 403 0
DWIDTH 21 0
BBX 22 42 0 0
BITMAP
001FFC
001FFC
001C0C
001C0C
001C0C
001C0C
001C0C
001C0C
001C0C
001C0C
001C0C
001C0C
001C0C
001C0C
001C0C
001C0C
001C0C
001C0C
001C0C
001C0C
001C0C
001C0C
001C0C
001C0C
FFFC0C
FFFC0C
C07C0C
C07C0C
C07C0C
C07C0C
C07C0C
C07C0C
C07C0C
C07C0C
C07C0C
C07C0C
C0000C
C0000C
C0000C
60000C
7FFFFC
1FFFFC
ENDCHAR
STARTCHAR 006B
ENCODING 107
SWIDTH 423 0
DWIDTH 22 0
BBX 22 42 0 0
BITMAP
FFFFFC
FFFFFC
C0F80C
C0F80C
C0F80C
C0F80C
C0F80C
C0F80C
C0F80C
C0F80C
C0F80C
C0F80C
C0F80C
C0F80C
C0F80C
C0F80C
C0F80C
C0F80C
C0F80C
C0F80C
C0F80C
C0F80C
C0F80C
C0F80C
C0F00C
C0C01C
C00038
C00070
C00038
C0080C
C0380C
C0F80C
C0F80C
C0F80C
C0F80C
C0F80C
C0F80C
C0F80C
C0F80C
C0F80C
FFFFFC
FFFFFC
ENDCHAR
STARTCHAR 006C
ENCODING 108
SWIDTH 288 0
DWIDTH 15 0
BBX 15 42 0 0
BITMAP
FFE0
FFE0
C060
C060
C060
C060
C060
C060
C060
C060
C060
C060
C060
C060
C060
C060
C060
C060
C060
C060
C060
C060
C060
C060
C060
C060
C060
C060
C060
C060
C060
C060
C060
C060
C07E
C07E
C006
C006
C006
C006
FFFE
FFFE
ENDCHAR
STARTCHAR 006D
ENCODING 109
SWIDTH 634 0
DWIDTH 33 0
BBX 33 42 0 0
BITMAP
FFF80FFF80
FFFC1FFF80
C00E780180
C003E00180
C001C00180
C000800180
C000000180
C000000180
C040008180
C060018180
C070038180
C070078180
C070078180
C0780F8180
C0780F8180
C0780F8180
C0780F8180
C0780F8180
C0780F8180
C0780F8180
C0780F8180
C0780F8180
C0780F8180
C0780F8180
C0780F8180
C0780F8180
C0780F8180
C0780F8180
C0780F8180
C0780F8180
C0780F8180
C0780F8180
C0780F8180
C0780F8180
C0780F8180
C0780F8180
C0780F8180
C0780F8180
C0780F8180
C0780F8180
FFFFFFFF80
FFFFFFFF80
ENDCHAR
STARTCHAR 006E
ENCODING 110
SWIDTH 423 0
DWIDTH 22 0
BBX 22 42 0 0
BITMAP
FF1FFC
FFFFFC
C0FC0C
C01C0C
C0080C
C0000C
C0000C
C0000C
C0000C
C0400C
C0600C
C0700C
C0780C
C0780C
C07C0C
C07C0C
C07C0C
C07C0C
C07C0C
C07C0C
C07C0C
C07C0C
C07C0C
C07C0C
C07C0C
C07C0C
C07C0C
C07C0C
C07C0C
C07C0C
C07C0C
C07C0C
C07C0C
C07C0C
C07C0C
C07C0C
C07C0C
C07C0C
C07C0C
C07C0C
FFFFFC
FFFFFC
ENDCHAR
STARTCHAR 006F
ENCODING 111
SWIDTH 423 0
DWIDTH 22 0
BBX 22 42 0 0
BITMAP
FFFFE0
FFFFF8
C00018
C0000C
C0000C
C0000C
C07C0C
C07C0C
C07C0C
C07C0C
C07C0C
C07C0C
C07C0C
C07C0C
C07C0C
C07C0C
C07C0C
C07C0C
C07C0C
C07C0C
C07C0C
C07C0C
C07C0C
C07C0C
C07C0C
C07C0C
C07C0C
C07C0C
C07C0C
C07C0C
C07C0C
C07C0C
C07C0C
C07C0C
C07C0C
C07C0C
C0000C
C0000C
C0000C
E0000C
7FFFFC
1FFFFC
ENDCHAR
STARTCHAR 0070
ENCODING 112
SWIDTH 423 0
DWIDTH 22 0
BBX 22 42 0 0
BITMAP
FFFFC0
FFFFF0
C00038
C0001C
C0000C
C0000C
C07C0C
C07C0C
C07C0C
C07C0C
C07C0C
C07C0C
C07C0C
C07C0C
C07C0C
C07C0C
C07C0C
C07C0C
C07C0C
C07C0C
C07C0C
C07C0C
C07C0C
C07C0C
C0780C
C0601C
C00038
C00070
C001E0
C00780
C00E00
C03C00
C07000
C06000
C06000
C06000
C06000
C06000
C06000
C06000
FFE000
FFE000
ENDCHAR
STARTCHAR 0071
ENCODING 113
SWIDTH 423 0
DWIDTH 22 0
BBX 22 45 0 -4
BITMAP
FFFFE0
FFFFF8
C00018
C0000C
C0000C
C0000C
C0F80C
C0F80C
C0F80C
C0F80C
C0F80C
C0F80C
C0F80C
C0F80C
C0F80C
C0F80C
C0F80C
C0F80C
C0F80C
C0F80C
C0F80C
C0F80C
C0F80C
C0F80C
C0F80C
C0F80C
C0F80C
C0F80C
C0F80C
C0F80C
C0F80C
C0F80C
C0F80C
C0F80C
C0F80C
C0F80C
C0000C
C0000C
C0000C
70000C
3E07FC
0FC7FC
01FE00
003E00
000600
ENDCHAR
STARTCHAR 0072
ENCODING 114
SWIDTH 423 0
DWIDTH 22 0
BBX 22 42 0 0
BITMAP
FFFFE0
FFFFF8
C00018
C0000C
C0000C
C0000C
C0780C
C0780C
C0780C
C0780C
C0780C
C0780C
C0780C
C0780C
C0780C
C0780C
C0780C
C0780C
C0780C
C0780C
C0780C
C0780C
C0780C
C0780C
C0700C
C0601C
C00038
C00070
C00038
C0080C
C0180C
C0780C
C0780C
C0780C
C0780C
C0780C
C0780C
C0780C
C0780C
C0780C
FFFFFC
FFFFFC
ENDCHAR
STARTCHAR 0073
ENCODING 115
SWIDTH 423 0
DWIDTH 22 0
BBX 22 42 0 0
BITMAP
1FFFE0
7FFFF8
600018
C0000C
C0000C
C0000C
C07C0C
C07C0C
C07C0C
C07C0C
C07C0C
C07C0C
C07C0C
C07C0C
C07C0C
C07C0C
C07C0C
C07C0C
C07C0C
C07C0C
C07C0C
C07C0C
C07C0C
C07FFC
C07FFC
C07FF8
C0001C
C0000C
C0000C
70000C
7FFC0C
FFFC0C
FFFC0C
C07C0C
C07C0C
C07C0C
C0000C
C0000C
C0000C
E00018
7FFFF8
1FFFE0
ENDCHAR
STARTCHAR 0074
ENCODING 116
SWIDTH 346 0
DWIDTH 18 0
BBX 19 42 -1 0
BITMAP
FFFFE0
FFFFE0
C00060
C00060
C00060
C00060
FC07E0
FC07E0
0C0600
0C0600
0C0600
0C0600
0C0600
0C0600
0C0600
0C0600
0C0600
0C0600
0C0600
0C0600
0C0600
0C0600
0C0600
0C0600
0C0600
0C0600
0C0600
0C0600
0C0600
0C0600
0C0600
0C0600
0C0600
0C0600
0C0600
0C0600
0C0600
0C0600
0C0600
0C0600
0FFE00
0FFE00
ENDCHAR
STARTCHAR 0075
ENCODING 117
SWIDTH 423 0
DWIDTH 22 0
BBX 22 42 0 0
BITMAP
FFFFFC
FFFFFC
C07C0C
C07C0C
C07C0C
C07C0C
C07C0C
C07C0C
C07C0C
C07C0C
C07C0C
C07C0C
C07C0C
C07C0C
C07C0C
C07C0C
C07C0C
C07C0C
C07C0C
C07C0C
C07C0C
C07C0C
C07C0C
C07C0C
C07C0C
C07C0C
C07C0C
C07C0C
C07C0C
C07C0C
C07C0C
C07C0C
C07C0C
C07C0C
C07C0C
C0000C
C0000C
C0000C
60000C
78000C
1FFFFC
07FFFC
ENDCHAR
STARTCHAR 0076
ENCODING 118
SWIDTH 423 0
DWIDTH 22 0
BBX 22 42 0 0
BITMAP
FFFFFC
FFFFFC
C0F80C
C0F80C
C0F80C
C0F80C
C0F80C
C0F80C
C0F80C
C0F80C
C0F80C
C0F80C
C0F80C
C0F80C
C0F80C
C0F80C
C0F80C
C0F80C
C0F80C
C0F80C
C0F80C
C0F80C
C0F80C
C0F80C
C0F80C
C0F80C
C0F80C
C0F00C
C0700C
C0700C
607018
602018
602018
302030
300030
180060
180060
0C00C0
0600C0
070180
03FF00
01FE00
ENDCHAR
STARTCHAR 0077
ENCODING 119
SWIDTH 634 0
DWIDTH 33 0
BBX 33 42 0 0
BITMAP
FFFFFFFF80
FFFFFFFF80
C0F80F8180
C0F80F8180
C0F80F8180
C0F80F8180
C0F80F8180
C0F80F8180
C0F80F8180
C0F80F8180
C0F80F8180
C0F80F8180
C0F80F8180
C0F80F8180
C0F80F8180
C0F80F8180
C0F80F8180
C0F80F8180
C0F80F8180
C0F80F8180
C0F80F8180
C0F80F8180
C0F80F8180
C0F80F8180
C0F80F8180
C0F80F8180
C0F80F8180
C0F80F8180
C0F80F0180
C0780F0180
E078070300
6030020300
6020020300
3000000600
3000000600
1800000C00
1800800C00
0C01C01800
0E03E01800
0703703000
03FE3FE000
01FC1FC000
ENDCHAR
STARTCHAR 0078
ENCODING 120
SWIDTH 423 0
DWIDTH 22 0
BBX 22 42 0 0
BITMAP
FFFFFC
FFFFFC
C0F80C
C0F80C
C0F80C
C0F80C
C0F80C
C0F80C
C0F80C
C0F80C
C0F80C
C0F80C
C0F80C
C0F80C
C0F80C
C0F80C
C0F80C
C0F80C
C0F80C
C0F80C
C0F80C
C0F80C
C0F80C
C0F80C
C0F00C
C0C00C
E00018
700070
380038
60080C
E0380C
C0F80C
C0F80C
C0F80C
C0F80C
C0F80C
C0F80C
C0F80C
C0F80C
C0F80C
FFFFFC
FFFFFC
ENDCHAR
STARTCHAR 0079
ENCODING 121
SWIDTH 423 0
DWIDTH 22 0
BBX 22 42 0 0
BITMAP
FFFFFC
FFFFFC
C0780C
C0780C
C0780C
C0780C
C0780C
C0780C
C0780C
C0780C
C0780C
C0780C
C0780C
C0780C
C0780C
C0780C
C0780C
C0780C
C0780C
C0780C
C0780C
C0780C
C0780C
C0780C
C0780C
C0000C
C0000C
C0000C
C0000C
E0000C
7FF80C
1FF80C
00180C
00180C
FFF80C
FFF80C
C0000C
C0000C
C0000C
C0000C
FFFFFC
FFFFFC
ENDCHAR
STARTCHAR 007A
ENCODING 122
SWIDTH 423 0
DWIDTH 22 0
BBX 23 42 0 0
BITMAP
FFFFFE
FFFFFE
C00006
C00006
C00006
C00006
FFFC06
FFF806
001806
00300C
00300C
00700C
006018
006018
00C030
00C030
018070
018060
038060
0300C0
0300C0
0601C0
060180
0E0180
0C0300
0C0300
180700
180600
300600
300C00
700C00
601800
601800
C03800
C03FFE
C03FFE
C00006
C00006
C00006
C00006
FFFFFE
FFFFFE
ENDCHAR
STARTCHAR 007B
ENCODING 123
SWIDTH 346 0
DWIDTH 18 0
BBX 19 42 0 0
BITMAP
01FFE0
07FFE0
060060
0C0060
0C0060
0C0060
0C07E0
0C07E0
0C0600
0C0600
0C0600
0C0600
0C0600
0C0600
0C0600
0C0600
0C0600
0C0600
FC0600
FC0600
C00E00
C01C00
C00E00
C00600
FC0600
FC0600
0C0600
0C0600
0C0600
0C0600
0C0600
0C0600
0C0600
0C0600
0C07E0
0C07E0
0C0060
0C0060
0C0060
060060
07FFE0
01FFE0
ENDCHAR
STARTCHAR 007C
ENCODING 124
SWIDTH 211 0
DWIDTH 11 0
BBX 12 42 0 0
BITMAP
FFF0
FFF0
C030
C030
C030
C030
C030
C030
C030
C030
C030
C030
C030
C030
C030
C030
C030
C030
C030
C030
C030
C030
C030
C030
C030
C030
C030
C030
C030
C030
C030
C030
C030
C030
C030
C030
C030
C030
C030
C030
FFF0
FFF0
ENDCHAR
STARTCHAR 007D
ENCODING 125
SWIDTH 365 0
DWIDTH 19 0
BBX 19 42 0 0
BITMAP
FFF000
FFFC00
C00C00
C00600
C00600
C00600
FC0600
FC0600
0C0600
0C0600
0C0600
0C0600
0C0600
0C0600
0C0600
0C0600
0C0600
0C0600
0C07E0
0C07E0
0E0060
070060
0E0060
0C0060
0C07E0
0C07E0
0C0600
0C0600
0C0600
0C0600
0C0600
0C0600
0C0600
0C0600
FC0600
FC0600
C00600
C00600
C00600
C00C00
FFFC00
FFF000
ENDCHAR
STARTCHAR 00A0
ENCODING 160
SWIDTH 769 0
DWIDTH 40 0
BBX 0 0 0 0
BITMAP
ENDCHAR
STARTCHAR 00A2
ENCODING 162
SWIDTH 365 0
DWIDTH 19 0
BBX 19 37 0 2
BITMAP
01FC00
01FC00
018C00
018C00
1F8FE0
7F8FE0
600060
C00060
C00060
C00060
C07FE0
C07FE0
C06000
C06000
C06000
C06000
C06000
C06000
C06000
C06000
C06000
C06000
C06000
C06000
C07FE0
C07FE0
C00060
C00060
C00060
C00060
600060
7F8FE0
1F8FE0
018C00
018C00
01FC00
01FC00
ENDCHAR
STARTCHAR 00A9
ENCODING 169
SWIDTH 826 0
DWIDTH 43 0
BBX 43 42 0 0
BITMAP
1FFFFFFFFF00
7FFFFFFFFFC0
6000000000C0
C00000000060
C00000000060
C00000000060
C00000000060
C07FFFFFC060
C06FFFFFC060
C07C0001C060
C0780001C060
C0780001C060
C0780001C060
C0780FFFC060
C0780FFFC060
C0780800C060
C0780800C060
C0780800C060
C0780800C060
C0780800C060
C0780800C060
C0780800C060
C0780800C060
C0780800C060
C0780800C060
C0780800C060
C0780800C060
C0780FFFC060
C0780FFFC060
C0780001C060
C0780001C060
C0780001C060
C0780001C060
C06C0001C060
C07FFFFFC060
C07FFFFFC060
C00000000060
C00000000060
C00000000060
E000000000C0
7FFFFFFFFFC0
1FFFFFFFFF00
ENDCHAR
STARTCHAR 00AE
ENCODING 174
SWIDTH 826 0
DWIDTH 43 0
BBX 43 42 0 0
BITMAP
1FFFFFFFFF00
7FFFFFFFFFC0
6000000000C0
C00000000060
C00000000060
C00000000060
C00000000060
C07FFFFFC060
C07FFFFFC060
C07C0003C060
C07C0001C060
C07C0001C060
C07C0001C060
C07C0F01C060
C07C0F01C060
C07C0F01C060
C07C0F01C060
C07C0F01C060
C07C0F01C060
C07C0F01C060
C07C0001C060
C07C0003C060
C07C0007C060
C07C0001C060
C07C0F01C060
C07C0F01C060
C07C0F01C060
C07C0F01C060
C07C0F01C060
C07C0F01C060
C07C0F01C060
C07C0F01C060
C07C0F01C060
C07C0F01C060
C07FFFFFC060
C07FFFFFC060
C00000000060
C00000000060
C00000000060
E000000000C0
7FFFFFFFFFC0
1FFFFFFFFF00
ENDCHAR
STARTCHAR 00F7
ENCODING 247
SWIDTH 423 0
DWIDTH 22 0
BBX 23 24 0 10
BITMAP
03FF80
03FF80
030180
030180
030180
030180
03FF80
03FF80
03FF80
FFFFFE
FFFFFE
C00006
C00006
C00006
FFFFFE
FFFFFE
03FF80
03FF80
030180
030180
030180
030180
03FF80
03FF80
ENDCHAR
STARTCHAR 2018
ENCODING 8216
SWIDTH 346 0
DWIDTH 18 0
BBX 19 16 -1 26
BITMAP
00FFE0
00FFE0
01C0C0
0180C0
030180
030380
060300
060700
0C0600
1C0C00
180C00
381800
301800
703000
7FF000
FFE000
ENDCHAR
STARTCHAR 2019
ENCODING 8217
SWIDTH 346 0
DWIDTH 18 0
BBX 19 16 -1 26
BITMAP
00FFE0
00FFE0
01C0C0
0180C0
030180
030380
060300
060700
0C0600
1C0C00
180C00
381800
301800
703000
7FF000
FFE000
ENDCHAR
STARTCHAR 201C
ENCODING 8220
SWIDTH 480 0
DWIDTH 25 0
BBX 27 16 -1 26
BITMAP
00FFFFE0
00FFFFE0
0181C0C0
0183C1C0
03038180
03078380
06070300
0E0F0600
0C0E0600
1C1E0C00
181C0C00
30381800
30783800
60703000
7FFFF000
FFFFE000
ENDCHAR
STARTCHAR 201D
ENCODING 8221
SWIDTH 480 0
DWIDTH 25 0
BBX 27 16 -1 26
BITMAP
00FFFFE0
00FFFFE0
0181C0C0
0183C1C0
03038180
03078380
06070300
0E0F0600
0C0E0600
1C1E0C00
181C0C00
30381800
30783800
60703000
7FFFF000
FFFFE000
ENDCHAR
STARTCHAR 2022
ENCODING 8226
SWIDTH 288 0
DWIDTH 15 0
BBX 16 17 0 11
BITMAP
07E0
1FF8
3C3C
700E
6006
E007
C003
C003
C003
C003
C003
6006
6006
700C
3C3C
1FF0
07E0
ENDCHAR
STARTCHAR 2026
ENCODING 8230
SWIDTH 884 0
DWIDTH 46 0
BBX 39 8 0 0
BITMAP
FF01FE01FE
FF01FE01FE
C301860186
C301860186
C301860186
C301860186
FF01FE01FE
FF01FE01FE
ENDCHAR
STARTCHAR 2122
ENCODING 8482
SWIDTH 538 0
DWIDTH 28 0
BBX 29 18 0 24
BITMAP
FFFF83F8
FFFFC7F8
C030E618
C0306C18
F0F03C18
F0F03818
30F01018
30F00018
30F08018
30F08418
30F0C418
30F0EC18
30F0FC18
30F0FC18
30F0DC18
30F0CC18
3FFFCFF8
3FFFCFF8
ENDCHAR
STARTCHAR F8FF
ENCODING 63743
SWIDTH 1500 0
DWIDTH 78 0
BBX 74 42 2 -1
BITMAP
0000003FFF0000000000
000007C000F800000000
00003C00000700000000
0000E0000000E0007EC0
00030000000038008AC0
0006000000000FFFCA00
001800000003E840FC00
7E3000001FE22840F800
DA7C000064F429F38000
D2F4000E843C39320000
5AC4007F9C9C39320000
3F0401F33CCCB9120000
021C093264CC99120000
04303B3264CC99D20000
086F263244C998520000
08D9A632449998520000
10B0E032441809D20000
11266132442809120000
216661332439C9120000
234929339C9B7F1E0000
22492F33C4FF00040000
22492F327F8000040000
22492F32000000040000
22492936000000040000
224D2978000000080000
212669C0000000080000
11266800000000080000
11B0B000000000100000
18988000000000300000
084F0000000000200000
04200000000000400000
06180000000000800000
030E0000000003000000
01820000000006000000
00E38000000008000000
003A6000000008000000
000E1C00000388000000
000203E0007C90000000
0000003FFF8090000000
000000000000E0000000
000000000001C0000000
00000000000100000000
ENDCHAR
ENDFONT
